<svg width="445" height="192" viewBox="0 0 445 192" fill="none" xmlns="http://www.w3.org/2000/svg">
<path d="M1.22583 117.419C0.915033 113.867 3.54286 110.735 7.09524 110.425L121.142 100.447C124.694 100.136 127.826 102.768 128.137 106.32C129.559 122.57 130.548 133.881 131.97 150.131C132.281 153.684 129.653 156.819 126.101 157.13L12.0544 167.108C8.50201 167.419 5.37029 164.791 5.0595 161.239L1.22583 117.419Z" fill="#C39815"/>
<path d="M42.3549 138.896C42.6938 142.769 42.8388 145.524 42.7899 147.159C42.7556 148.778 42.3126 150.296 41.461 151.714C40.6253 153.131 39.4212 154.268 37.8487 155.125C36.2763 155.982 34.4027 156.506 32.2281 156.697C30.1646 156.877 28.2782 156.706 26.5691 156.184C24.8744 155.644 23.4681 154.744 22.35 153.482C21.2319 152.22 20.5082 150.804 20.1789 149.233C19.8495 147.663 19.5113 144.893 19.1641 140.925L18.5871 134.33C18.2482 130.457 18.096 127.711 18.1303 126.092C18.1791 124.457 18.6214 122.93 19.4572 121.514C20.3088 120.096 21.5208 118.958 23.0933 118.101C24.6657 117.243 26.5393 116.72 28.7139 116.529C30.7774 116.349 32.6565 116.528 34.3512 117.068C36.0603 117.59 37.4739 118.482 38.592 119.744C39.71 121.005 40.4337 122.422 40.7631 123.992C41.0924 125.563 41.4307 128.332 41.7779 132.301L42.3549 138.896ZM31.2227 127.106C31.0658 125.313 30.8627 124.179 30.6133 123.705C30.3783 123.213 29.9513 122.995 29.3323 123.049C28.8085 123.095 28.4218 123.337 28.1721 123.774C27.937 124.195 27.9062 125.397 28.0798 127.381L29.6547 145.381C29.8505 147.62 30.0586 148.993 30.279 149.501C30.5153 150.009 30.9668 150.233 31.6335 150.175C32.3161 150.115 32.7262 149.775 32.8639 149.155C33.0016 148.536 32.9712 147.091 32.7726 144.821L31.2227 127.106ZM44.1421 115.995L54.2375 115.112C56.9677 114.873 59.0817 114.904 60.5795 115.205C62.0932 115.504 63.2506 116.027 64.0516 116.773C64.8685 117.517 65.4546 118.457 65.8099 119.594C66.1798 120.713 66.4702 122.479 66.6813 124.892L66.975 128.249C67.1903 130.709 67.0932 132.525 66.6839 133.697C66.2745 134.868 65.4137 135.815 64.1014 136.538C62.8049 137.259 61.0614 137.715 58.8709 137.907L56.1804 138.142L57.5386 153.666L47.5146 154.543L44.1421 115.995ZM54.7431 121.714L55.6013 131.523C55.8884 131.514 56.1351 131.501 56.3415 131.482C57.2621 131.402 57.8776 131.124 58.188 130.649C58.5128 130.157 58.6127 129.196 58.4877 127.768L58.2106 124.601C58.0954 123.284 57.814 122.445 57.3666 122.084C56.9192 121.723 56.0447 121.6 54.7431 121.714ZM68.6187 113.854L85.3332 112.391L86.0081 120.106L79.3175 120.691L79.957 128.001L86.219 127.453L86.8606 134.786L80.5986 135.334L81.3402 143.811L88.6975 143.167L89.3724 150.881L71.9912 152.402L68.6187 113.854ZM111.286 110.121L114.658 148.669L105.873 149.438L99.1251 132.37L100.658 149.894L92.2772 150.627L88.9047 112.079L97.2857 111.346L104.423 128.212L102.905 110.854L111.286 110.121Z" fill="white"/>
<rect width="23.2649" height="22.5985" transform="matrix(-0.996195 0.0871557 0.0871557 0.996195 23.1758 108.917)" fill="#1E1E1E"/>
<g filter="url(#filter0_d_2134_6670)">
<path d="M23.1758 108.917L12.5551 121.796L2.63283 133.399L25.1454 131.429L23.1758 108.917Z" fill="white"/>
</g>
<g filter="url(#filter1_d_2134_6670)">
<path d="M128.59 130.292C128.652 126.726 131.593 123.886 135.158 123.949L432.733 129.143C436.299 129.205 439.139 132.15 439.076 135.715C438.792 152.025 438.594 163.378 438.309 179.687C438.247 183.252 435.306 186.096 431.74 186.034L134.165 180.84C130.6 180.778 127.76 177.837 127.822 174.271L128.59 130.292Z" fill="#C39815"/>
</g>
<path d="M141.467 132.101L148.783 132.228C153.66 132.313 156.954 132.559 158.666 132.966C160.394 133.372 161.785 134.362 162.838 135.936C163.908 137.494 164.413 139.966 164.354 143.354C164.3 146.447 163.879 148.519 163.091 149.569C162.303 150.62 160.778 151.232 158.516 151.405C160.553 151.948 161.916 152.651 162.605 153.515C163.294 154.378 163.714 155.171 163.865 155.894C164.032 156.601 164.088 158.558 164.032 161.766L163.849 172.248L154.251 172.081L154.481 158.873C154.518 156.746 154.369 155.425 154.035 154.912C153.716 154.399 152.845 154.13 151.421 154.105L151.108 172.026L140.773 171.846L141.467 132.101ZM151.683 139.081L151.529 147.919C152.691 147.939 153.504 147.798 153.968 147.495C154.448 147.176 154.703 146.141 154.734 144.389L154.772 142.205C154.794 140.944 154.579 140.114 154.128 139.713C153.693 139.313 152.878 139.102 151.683 139.081ZM168.569 132.574L185.803 132.874L185.664 140.828L178.766 140.708L178.634 148.245L185.09 148.357L184.958 155.918L178.502 155.806L178.349 164.545L185.935 164.678L185.796 172.631L167.875 172.319L168.569 132.574ZM213.314 150.692L202.979 150.511L203.1 143.588C203.135 141.575 203.042 140.321 202.822 139.826C202.618 139.315 202.14 139.053 201.387 139.04C200.536 139.025 199.99 139.319 199.751 139.92C199.511 140.522 199.374 141.829 199.338 143.842L199.016 162.303C198.982 164.234 199.075 165.496 199.294 166.089C199.513 166.683 200.023 166.986 200.825 167C201.594 167.014 202.099 166.728 202.338 166.143C202.594 165.558 202.741 164.177 202.779 162L202.866 157.017L213.201 157.197L213.174 158.744C213.102 162.852 212.757 165.76 212.137 167.468C211.535 169.176 210.224 170.66 208.204 171.918C206.202 173.176 203.744 173.78 200.83 173.729C197.803 173.676 195.316 173.084 193.372 171.953C191.427 170.823 190.152 169.286 189.548 167.344C188.943 165.385 188.675 162.458 188.743 158.563L188.946 146.951C188.996 144.087 189.131 141.945 189.353 140.524C189.574 139.088 190.179 137.715 191.168 136.406C192.173 135.097 193.541 134.082 195.273 133.359C197.021 132.62 199.016 132.27 201.259 132.309C204.303 132.362 206.805 132.995 208.764 134.208C210.724 135.421 212 136.917 212.591 138.695C213.182 140.457 213.445 143.196 213.38 146.911L213.314 150.692ZM217.324 133.425L224.639 133.552C229.517 133.637 232.811 133.883 234.523 134.29C236.251 134.696 237.642 135.686 238.695 137.26C239.764 138.818 240.27 141.29 240.211 144.678C240.157 147.771 239.736 149.843 238.948 150.893C238.16 151.944 236.635 152.556 234.373 152.729C236.41 153.272 237.773 153.975 238.462 154.839C239.15 155.702 239.57 156.495 239.722 157.218C239.889 157.925 239.945 159.882 239.889 163.09L239.706 173.572L230.108 173.405L230.338 160.198C230.375 158.07 230.226 156.749 229.892 156.236C229.573 155.723 228.702 155.454 227.278 155.429L226.965 173.35L216.63 173.17L217.324 133.425ZM227.54 140.405L227.386 149.243C228.548 149.263 229.361 149.122 229.825 148.819C230.305 148.5 230.56 147.465 230.591 145.714L230.629 143.529C230.651 142.268 230.436 141.438 229.985 141.037C229.55 140.637 228.735 140.426 227.54 140.405ZM267.92 134.308L267.456 160.87C267.403 163.881 267.268 165.999 267.05 167.223C266.833 168.431 266.23 169.673 265.242 170.949C264.254 172.208 262.96 173.16 261.361 173.803C259.779 174.43 257.915 174.725 255.771 174.688C253.398 174.646 251.31 174.217 249.507 173.4C247.704 172.582 246.364 171.536 245.486 170.26C244.608 168.984 244.099 167.649 243.959 166.255C243.82 164.845 243.79 161.898 243.868 157.413L244.279 133.895L254.614 134.076L254.094 163.878C254.063 165.613 254.134 166.727 254.305 167.222C254.494 167.7 254.874 167.944 255.447 167.954C256.102 167.965 256.523 167.711 256.713 167.19C256.918 166.653 257.039 165.395 257.073 163.415L257.584 134.127L267.92 134.308ZM282.256 134.558L281.563 174.303L271.227 174.123L271.921 134.378L282.256 134.558ZM307.223 134.994L307.084 142.948L300.947 142.841L300.392 174.632L290.057 174.451L290.611 142.66L284.499 142.554L284.638 134.6L307.223 134.994ZM341.469 135.592L340.775 175.337L331.741 175.179L332.209 148.347L328.132 175.116L321.725 175.004L318.377 148.719L317.92 174.938L308.886 174.78L309.58 135.035L322.959 135.268C323.31 137.665 323.678 140.487 324.063 143.735L325.311 153.874L327.991 135.356L341.469 135.592ZM345.618 135.664L362.851 135.965L362.712 143.919L355.814 143.798L355.682 151.335L362.139 151.448L362.007 159.009L355.55 158.896L355.398 167.636L362.984 167.768L362.845 175.722L344.924 175.409L345.618 135.664ZM389.61 136.432L388.916 176.177L379.857 176.019L374.796 157.857L374.481 175.925L365.84 175.774L366.534 136.029L375.175 136.18L380.656 154.177L380.968 136.281L389.61 136.432ZM414.601 136.868L414.462 144.822L408.325 144.715L407.77 176.506L397.435 176.326L397.989 144.534L391.877 144.428L392.016 136.474L414.601 136.868ZM418.541 168.59L418.4 176.692L410.912 176.561L411.053 168.46L418.541 168.59Z" fill="white"/>
<rect width="22.5985" height="22.5985" transform="matrix(0.999848 0.0174524 0.0174524 -0.999848 415.894 186.211)" fill="#1E1E1E"/>
<g filter="url(#filter2_d_2134_6670)">
<path d="M415.894 185.808L427.802 174.11L438.883 163.607L416.288 163.213L415.894 185.808Z" fill="white"/>
</g>
<g filter="url(#filter3_d_2134_6670)">
<path d="M91.4184 65.0804L86.7483 65.853L86.2308 62.7249C86.0803 61.8153 85.935 61.2582 85.7948 61.0534C85.6607 60.8401 85.4236 60.7616 85.0834 60.8178C84.6988 60.8815 84.4774 61.0586 84.4192 61.3494C84.3609 61.6401 84.407 62.2403 84.5575 63.1499L85.9376 71.4916C86.0819 72.3642 86.2279 72.9251 86.3755 73.1742C86.523 73.4233 86.778 73.5178 87.1404 73.4579C87.4879 73.4004 87.6915 73.23 87.751 72.9466C87.8178 72.662 87.7699 72.028 87.6072 71.0444L87.2347 68.7926L91.9047 68.02L92.0203 68.7188C92.3274 70.575 92.412 71.9134 92.2743 72.7339C92.1439 73.5532 91.6759 74.3296 90.8704 75.0631C90.0722 75.7953 89.015 76.2703 87.6987 76.4881C86.3306 76.7144 85.1618 76.6533 84.1924 76.3046C83.2231 75.956 82.522 75.3692 82.0892 74.5443C81.6552 73.712 81.2926 72.4158 81.0014 70.6558L80.1334 65.4089C79.9193 64.1148 79.8034 63.1387 79.7857 62.4806C79.7668 61.8152 79.9259 61.1469 80.2631 60.4757C80.6077 59.8033 81.1402 59.2327 81.8604 58.7641C82.5867 58.2868 83.4565 57.9644 84.4696 57.7968C85.8451 57.5692 87.0243 57.6477 88.0072 58.0321C88.9901 58.4165 89.6881 58.9848 90.1013 59.737C90.5132 60.4817 90.858 61.6935 91.1357 63.3722L91.4184 65.0804Z" fill="white"/>
<path d="M102.989 55.5903L107.762 73.3643L102.947 73.9183L102.339 70.6949L100.652 70.8889L100.747 74.1715L95.877 74.7318L96.1865 56.373L102.989 55.5903ZM101.836 67.5046C101.362 65.4842 100.833 62.9835 100.248 60.0026C100.169 63.5126 100.162 66.075 100.227 67.6897L101.836 67.5046Z" fill="white"/>
<path d="M114.079 54.6463L115.033 69.1753L117.905 68.9868L118.143 72.6219L110.548 73.1203L109.356 54.9562L114.079 54.6463Z" fill="white"/>
<path d="M125.092 54.1509L125.386 68.7203L128.266 68.6575L128.339 72.3027L120.723 72.4689L120.356 54.2542L125.092 54.1509Z" fill="white"/>
<path d="M136.092 54.2638L135.639 72.4613L130.907 72.3435L131.36 54.146L136.092 54.2638Z" fill="white"/>
<path d="M150.538 55.2398L148.959 73.3744L144.826 73.0145L143.091 64.5569L142.373 72.8009L138.43 72.4576L140.009 54.3231L143.952 54.6664L145.884 63.0621L146.595 54.8966L150.538 55.2398Z" fill="white"/>
<path d="M165.434 64.4095L160.781 63.5423L161.083 61.9175C161.274 60.8932 161.35 60.2439 161.309 59.9695C161.269 59.6952 161.083 59.5271 160.751 59.4653C160.464 59.4117 160.248 59.4859 160.104 59.6877C159.959 59.8895 159.802 60.4473 159.632 61.361L158.031 69.9494C157.882 70.7526 157.834 71.2927 157.889 71.5698C157.946 71.8396 158.129 72.0033 158.438 72.061C158.777 72.1242 159.032 72.023 159.204 71.7576C159.383 71.4936 159.55 70.9452 159.705 70.1126L160.1 67.9904L159.161 67.8153L159.668 65.0962L165.117 66.1117L163.327 75.7169L160.398 75.171L160.206 73.8085C159.786 74.3021 159.307 74.6436 158.768 74.833C158.238 75.0164 157.645 75.047 156.99 74.9248C156.209 74.7792 155.51 74.4547 154.895 73.9512C154.289 73.4417 153.861 72.8739 153.611 72.248C153.362 71.6221 153.25 70.9951 153.276 70.367C153.303 69.7315 153.431 68.7985 153.66 67.5679L154.651 62.2513C154.969 60.5418 155.293 59.3173 155.621 58.5779C155.95 57.8385 156.608 57.2293 157.597 56.7503C158.595 56.2652 159.787 56.1518 161.172 56.4099C162.535 56.664 163.614 57.1548 164.409 57.8823C165.203 58.6099 165.665 59.3859 165.793 60.2104C165.923 61.0276 165.851 62.1694 165.578 63.6358L165.434 64.4095Z" fill="white"/>
<path d="M184.002 74.1194C183.366 75.8391 182.873 77.0428 182.522 77.7305C182.182 78.4138 181.687 78.9723 181.038 79.406C180.396 79.8424 179.653 80.0855 178.809 80.1354C177.966 80.1853 177.061 80.0325 176.095 79.677C175.178 79.3397 174.408 78.8881 173.784 78.3223C173.169 77.752 172.751 77.0855 172.528 76.323C172.305 75.5605 172.282 74.8113 172.458 74.0754C172.634 73.3395 173.048 72.0905 173.699 70.3286L174.782 67.4002C175.418 65.6806 175.906 64.4791 176.247 63.7958C176.597 63.1081 177.093 62.5461 177.735 62.1097C178.384 61.676 179.131 61.4342 179.974 61.3843C180.818 61.3344 181.723 61.4872 182.689 61.8427C183.606 62.18 184.371 62.6338 184.985 63.2041C185.609 63.7699 186.033 64.4341 186.256 65.1966C186.478 65.9592 186.502 66.7084 186.326 67.4443C186.15 68.1802 185.736 69.4291 185.085 71.1911L184.002 74.1194ZM181.628 66.8568C181.923 66.0604 182.064 65.5361 182.053 65.2839C182.052 65.0272 181.914 64.8483 181.639 64.7471C181.406 64.6614 181.193 64.6869 180.998 64.8234C180.813 64.9555 180.558 65.462 180.232 66.343L177.277 74.3352C176.909 75.3289 176.721 75.9563 176.713 76.2175C176.712 76.4812 176.859 76.6675 177.155 76.7765C177.458 76.8881 177.702 76.8255 177.885 76.5888C178.069 76.3522 178.347 75.7299 178.72 74.7221L181.628 66.8568Z" fill="white"/>
<path d="M201.921 70.5127L197.191 81.7483C196.655 83.0221 196.236 83.9009 195.934 84.3848C195.636 84.8618 195.167 85.2868 194.529 85.6599C193.894 86.0262 193.182 86.2083 192.392 86.2065C191.612 86.2007 190.77 86.0049 189.865 85.6191C188.863 85.192 188.048 84.6489 187.421 83.9897C186.794 83.3305 186.403 82.6534 186.247 81.9583C186.091 81.2633 186.103 80.6068 186.282 79.9889C186.463 79.3641 186.953 78.1033 187.752 76.2065L191.94 66.2584L196.303 68.1183L190.996 80.7247C190.687 81.4585 190.527 81.9454 190.516 82.1855C190.514 82.4216 190.634 82.5912 190.876 82.6943C191.152 82.8121 191.375 82.7764 191.544 82.5873C191.724 82.3942 191.989 81.8788 192.342 81.0411L197.558 68.6528L201.921 70.5127Z" fill="white"/>
<path d="M214.276 73.3647L213.624 76.95L210.854 76.4644L208.246 90.7944L203.582 89.9768L206.19 75.6468L203.432 75.1633L204.084 71.578L214.276 73.3647Z" fill="white"/>
<path d="M231.853 73.9606L231.826 92.1638L227.677 92.1575L225.227 83.8787L225.215 92.1538L221.257 92.1479L221.284 73.9448L225.242 73.9507L227.883 82.1512L227.896 73.9547L231.853 73.9606Z" fill="white"/>
<path d="M235.896 73.884L243.778 73.4745L243.967 77.1125L240.812 77.2764L240.991 80.7235L243.944 80.57L244.124 84.0284L241.171 84.1818L241.379 88.1791L244.848 87.9988L245.037 91.6368L236.841 92.0626L235.896 73.884Z" fill="white"/>
<path d="M264.782 71.4493L264.704 89.779L258.826 90.4417C257.981 87.723 257.157 84.6172 256.353 81.1243C256.335 82.6578 256.251 85.8661 256.1 90.7491L250.256 91.4079L246.143 73.5506L250.713 73.0354L251.896 79.2957L253.065 85.3313C252.886 82.1603 252.858 77.9764 252.982 72.7796L257.876 72.2278C258.002 72.7493 258.394 74.7193 259.054 78.1379L260.332 84.9533C260.106 80.5503 260.066 76.2207 260.211 71.9646L264.782 71.4493Z" fill="white"/>
<path d="M273.495 69.8742L276.791 69.241C278.988 68.8188 280.491 68.6181 281.298 68.6389C282.112 68.6583 282.83 68.9714 283.452 69.5782C284.081 70.1761 284.542 71.2381 284.838 72.7639C285.108 74.1571 285.116 75.1265 284.862 75.6722C284.608 76.2179 283.982 76.6364 282.983 76.9277C283.949 76.9792 284.627 77.1661 285.019 77.4885C285.41 77.8109 285.674 78.1271 285.81 78.4373C285.953 78.7387 286.164 79.6117 286.444 81.0565L287.358 85.7778L283.033 86.6086L281.882 80.66C281.696 79.7018 281.504 79.1233 281.305 78.9245C281.113 78.7243 280.696 78.6859 280.055 78.8091L281.618 86.8806L276.962 87.7751L273.495 69.8742ZM278.745 72.0423L279.515 76.0228C280.039 75.9222 280.39 75.7821 280.57 75.6023C280.755 75.4138 280.771 74.9252 280.618 74.1365L280.428 73.1524C280.318 72.5849 280.143 72.2325 279.902 72.0952C279.669 71.9565 279.283 71.9389 278.745 72.0423Z" fill="white"/>
<path d="M300.458 75.2182C300.862 77.0032 301.105 78.2788 301.186 79.0451C301.273 79.8024 301.163 80.5394 300.856 81.2561C300.557 81.971 300.068 82.5794 299.389 83.0811C298.711 83.5827 297.871 83.9483 296.869 84.1777C295.918 84.3954 295.028 84.4377 294.198 84.3046C293.374 84.1625 292.661 83.8333 292.059 83.317C291.458 82.8007 291.031 82.1868 290.777 81.4753C290.524 80.7638 290.19 79.4937 289.776 77.6648L289.087 74.6251C288.683 72.8401 288.437 71.569 288.35 70.8117C288.269 70.0454 288.378 69.3048 288.678 68.5898C288.985 67.8731 289.477 67.264 290.156 66.7623C290.834 66.2606 291.675 65.8951 292.676 65.6656C293.627 65.4479 294.514 65.4101 295.338 65.5522C296.168 65.6853 296.884 66.01 297.486 66.5264C298.087 67.0427 298.515 67.6566 298.768 68.368C299.021 69.0795 299.355 70.3497 299.769 72.1786L300.458 75.2182ZM294.518 70.4379C294.331 69.6112 294.164 69.0954 294.018 68.8904C293.877 68.6764 293.664 68.602 293.379 68.6673C293.138 68.7226 292.973 68.8604 292.884 69.0807C292.802 69.2921 292.864 69.855 293.071 70.7694L294.95 79.0653C295.183 80.0968 295.368 80.724 295.503 80.947C295.645 81.1684 295.87 81.2438 296.177 81.1735C296.491 81.1015 296.661 80.9165 296.686 80.6184C296.71 80.3203 296.604 79.6482 296.367 78.6021L294.518 70.4379Z" fill="white"/>
<path d="M314.816 71.4502C315.287 73.2174 315.578 74.4819 315.688 75.2438C315.804 75.9965 315.722 76.736 315.442 77.4622C315.17 78.1865 314.704 78.811 314.045 79.3359C313.386 79.8608 312.56 80.2555 311.568 80.5202C310.627 80.7713 309.739 80.8452 308.904 80.7419C308.075 80.6295 307.351 80.3263 306.73 79.8323C306.11 79.3384 305.659 78.7409 305.379 78.0399C305.099 77.3388 304.718 76.083 304.235 74.2724L303.432 71.2631C302.961 69.496 302.668 68.236 302.552 67.4833C302.442 66.7214 302.523 65.9783 302.795 65.254C303.075 64.5278 303.544 63.9023 304.203 63.3774C304.862 62.8525 305.688 62.4578 306.68 62.1931C307.622 61.942 308.507 61.8727 309.336 61.9852C310.17 62.0885 310.898 62.3871 311.518 62.881C312.139 63.3749 312.589 63.9724 312.869 64.6734C313.149 65.3745 313.531 66.6304 314.014 68.441L314.816 71.4502ZM308.701 66.8906C308.483 66.0722 308.297 65.5633 308.143 65.3639C307.994 65.1553 307.778 65.0887 307.496 65.164C307.257 65.2277 307.097 65.3712 307.017 65.5942C306.942 65.8081 307.026 66.3677 307.267 67.273L309.458 75.486C309.73 76.5072 309.938 77.1266 310.081 77.3444C310.232 77.5602 310.459 77.6276 310.763 77.5464C311.075 77.4634 311.237 77.2726 311.251 76.9742C311.264 76.6759 311.133 76.0088 310.857 74.9731L308.701 66.8906Z" fill="white"/>
<path d="M325.753 56.7946L325.691 65.4485L331.574 74.0438L326.918 75.5417L322.709 68.6991L325.098 76.1271L320.592 77.5768L315.018 60.2483L319.524 58.7986L321.689 65.5309L321.525 58.1547L325.753 56.7946Z" fill="white"/>
<path d="M333.385 54.2358L339.198 71.4858L334.712 72.9974L328.899 55.7475L333.385 54.2358Z" fill="white"/>
<path d="M336.227 53.1857L343.691 50.588L344.896 54.0312L341.908 55.071L343.05 58.3336L345.846 57.3604L346.992 60.6336L344.195 61.6068L345.519 65.39L348.805 64.2466L350.01 67.6899L342.247 70.3911L336.227 53.1857Z" fill="white"/>
</g>
<path d="M144.049 81.2439L83.1919 80.3207C76.2703 80.2157 69.9729 76.2959 66.8229 70.1318L66.0286 68.5776C63.5901 63.8058 63.7803 58.1147 66.532 53.5164C68.6777 49.9309 72.176 47.3598 76.2385 46.3826L83.3876 44.6628C86.4826 43.9183 89.6688 43.6248 92.8477 43.7914L139.355 46.2287C143.153 46.4278 146.923 46.9885 150.615 47.9032L172.309 53.2783L210.976 60.2329L242.105 61.8643C246.242 62.0811 250.391 61.8677 254.484 61.2276L297.42 54.5126L337.231 44.7444C342.802 43.3774 348.641 43.5571 354.118 45.2641L358.87 46.7453C362.678 47.932 365.963 50.3882 368.179 53.7043L369.001 54.9355C372.594 60.3135 372.425 67.3682 368.578 72.5678C366.547 75.3135 363.657 77.3022 360.367 78.2181L313.192 91.3508C310.289 92.159 307.328 92.7468 304.336 93.1091L251.487 99.5085C248.061 99.9233 244.606 100.041 241.161 99.8605L202.517 97.8352C194.973 97.4398 187.571 95.6194 180.703 92.47L168.087 86.6842C160.538 83.2225 152.352 81.3698 144.049 81.2439Z" stroke="white" stroke-width="1.43473"/>
<path d="M154.372 15.3415L147.82 15.2271L148.077 0.522323L154.628 0.636684L154.623 0.958901L148.384 0.849994L148.278 6.92329L152.925 7.00441L152.92 7.32663L148.272 7.2455L148.138 14.9299L154.377 15.0388L154.372 15.3415ZM162.81 15.4888L160.418 15.447C159.103 15.4241 158.088 15.0417 157.371 14.2999C156.655 13.5581 156.308 12.533 156.331 11.2247L156.443 4.82914C156.466 3.52075 156.848 2.50839 157.59 1.79206C158.338 1.06933 159.366 0.719386 160.675 0.742224L163.067 0.78398L163.061 1.1062L160.669 1.06444C159.445 1.04308 158.492 1.36178 157.81 2.02055C157.128 2.67281 156.777 3.61082 156.755 4.8346L156.644 11.2301C156.622 12.4604 156.937 13.4166 157.59 14.0986C158.249 14.7743 159.193 15.1229 160.423 15.1443L162.816 15.1861L162.81 15.4888ZM172.273 12.3429C172.259 13.1436 171.967 13.8677 171.395 14.5154C170.738 15.2527 169.892 15.6124 168.857 15.5943C168.056 15.5803 167.209 15.4158 166.316 15.1007C165.423 14.7856 164.649 14.3814 163.993 13.8881L164.183 13.6374C166.534 14.7268 168.094 15.2782 168.862 15.2916C169.799 15.308 170.564 14.9795 171.155 14.3061C171.673 13.7226 171.938 13.0663 171.951 12.3373C171.965 11.5236 171.697 10.832 171.147 10.2624C170.962 10.0768 170.715 9.88042 170.406 9.67318C170.103 9.46604 169.733 9.24795 169.294 9.01891L166.913 7.77599C166.655 7.64126 166.387 7.49333 166.11 7.33222C165.839 7.17122 165.556 6.99373 165.26 6.79973C164.464 6.11517 164.076 5.23586 164.095 4.1618C164.109 3.3286 164.392 2.59775 164.944 1.96925C165.608 1.2125 166.516 0.844184 167.668 0.864295C169.178 0.890656 170.481 1.23571 171.577 1.89946L171.396 2.16002C169.636 1.52374 168.392 1.19924 167.663 1.18651C166.602 1.16799 165.772 1.49862 165.174 2.17839C164.676 2.74921 164.42 3.41216 164.407 4.16726C164.385 5.45612 165.038 6.45075 166.367 7.15114C166.793 7.36694 167.319 7.63657 167.945 7.96005C168.577 8.28363 169.316 8.66768 170.161 9.11219C171.593 9.91203 172.297 10.9889 172.273 12.3429ZM189.277 5.40226C189.249 6.97103 188.706 8.09778 187.645 8.78251C186.881 9.27055 185.946 9.50492 184.84 9.4856L181.198 9.42203L181.089 15.6613L180.776 15.6559L181.03 1.09753L184.985 1.16656C186.098 1.18599 187.024 1.45936 187.764 1.98667C188.799 2.721 189.304 3.85953 189.277 5.40226ZM188.955 5.39664C188.979 3.97107 188.519 2.92121 187.574 2.24706C186.892 1.75983 186.027 1.50707 184.979 1.48877L181.337 1.4252L181.203 9.09981L184.845 9.16338C185.893 9.18168 186.766 8.96576 187.464 8.51564C188.433 7.8814 188.929 6.84173 188.955 5.39664ZM196.072 7.92358L195.75 7.91796L195.775 6.47287L191.293 6.39464L191.129 15.8366L190.816 15.8311L190.986 6.07673L196.103 6.16604L196.072 7.92358ZM205.228 12.879C205.211 13.8164 204.872 14.6049 204.21 15.2445C203.541 15.8774 202.741 16.1858 201.81 16.1695C200.873 16.1532 200.084 15.8171 199.445 15.1613C198.805 14.499 198.494 13.6991 198.51 12.7618L198.566 9.56892C198.582 8.63156 198.921 7.84309 199.584 7.20351C200.246 6.56393 201.046 6.25232 201.983 6.26868C202.92 6.28504 203.709 6.62438 204.349 7.28668C204.988 7.94899 205.3 8.74882 205.283 9.68617L205.228 12.879ZM204.905 12.8734L204.961 9.68055C204.976 8.83432 204.692 8.10986 204.11 7.50717C203.535 6.90458 202.824 6.59591 201.978 6.58113C201.131 6.56636 200.407 6.84999 199.804 7.43201C199.202 8.01402 198.893 8.72814 198.878 9.57437L198.822 12.7672C198.808 13.6135 199.091 14.3379 199.673 14.9406C200.255 15.5433 200.969 15.8521 201.816 15.8668C202.662 15.8816 203.383 15.5979 203.979 15.0158C204.582 14.4338 204.891 13.7196 204.905 12.8734ZM213.608 16.3754L209.849 16.3098C209.022 16.2954 208.327 16 207.764 15.4237C207.201 14.8409 206.927 14.1361 206.941 13.3094L207.06 6.51357L207.373 6.51903L207.254 13.3149C207.241 14.0504 207.487 14.6798 207.993 15.203C208.498 15.7263 209.118 15.9943 209.854 16.0071L213.291 16.0671L213.456 6.62521L213.778 6.63083L213.608 16.3754ZM222.046 16.5227L218.287 16.4571C217.46 16.4427 216.766 16.1473 216.203 15.571C215.64 14.9882 215.366 14.2834 215.38 13.4567L215.45 9.46318C215.464 8.63648 215.763 7.94172 216.346 7.37889C216.928 6.81606 217.633 6.54186 218.46 6.55629L221.897 6.61628L221.978 1.96855L222.3 1.97417L222.046 16.5227ZM221.729 16.2144L221.891 6.92873L218.454 6.86874C217.719 6.8559 217.089 7.10211 216.566 7.60738C216.043 8.11265 215.775 8.73307 215.762 9.46863L215.692 13.4622C215.68 14.1977 215.926 14.8271 216.431 15.3503C216.936 15.8736 217.557 16.1416 218.292 16.1544L221.729 16.2144ZM227.927 16.6254C227.425 16.6166 227.008 16.4401 226.676 16.0957C226.343 15.7513 226.181 15.335 226.19 14.8468L226.413 2.04597L226.735 2.05159L226.512 14.8524C226.505 15.256 226.639 15.6001 226.914 15.8849C227.189 16.1697 227.528 16.3156 227.932 16.3227L227.927 16.6254ZM239.083 7.12137L233.997 21.5367L232.278 21.5068L232.284 21.1845L233.768 21.2104L235.391 16.6092L232.375 7.00428L232.689 6.91209L235.576 16.1045L238.782 7.01845L239.083 7.12137ZM256.785 6.58063C256.758 8.1494 256.214 9.27615 255.154 9.96087C254.39 10.4489 253.455 10.6833 252.348 10.664L248.706 10.6004L248.597 16.8397L248.285 16.8342L248.539 2.27589L252.493 2.34492C253.606 2.36435 254.533 2.63772 255.272 3.16503C256.308 3.89936 256.812 5.03789 256.785 6.58063ZM256.463 6.575C256.488 5.14944 256.028 4.09958 255.082 3.42543C254.401 2.93819 253.536 2.68543 252.488 2.66714L248.846 2.60357L248.712 10.2782L252.354 10.3417C253.402 10.36 254.275 10.1441 254.973 9.694C255.941 9.05976 256.438 8.0201 256.463 6.575ZM263.581 9.10195L263.258 9.09633L263.284 7.65123L258.802 7.573L258.637 17.0149L258.325 17.0095L258.495 7.2551L263.611 7.3444L263.581 9.10195ZM272.761 12.6221L266.356 12.5103L266.331 13.9456C266.31 15.1629 266.539 16.0003 267.019 16.458C267.417 16.8296 268.104 17.0239 269.08 17.0409L272.517 17.1009L272.512 17.4036L269.075 17.3436C268.007 17.325 267.249 17.1066 266.801 16.6886C266.256 16.1842 265.995 15.2681 266.018 13.9402L266.074 10.7473C266.09 9.80992 266.43 9.02146 267.092 8.38187C267.754 7.74229 268.554 7.43069 269.492 7.44705C270.429 7.46341 271.217 7.80274 271.857 8.46505C272.497 9.12735 272.808 9.92718 272.792 10.8645L272.761 12.6221ZM272.445 12.2942L272.47 10.8589C272.484 10.0127 272.201 9.28823 271.619 8.68553C271.043 8.08295 270.332 7.77427 269.486 7.7595C268.64 7.74473 267.915 8.02835 267.313 8.61037C266.71 9.19239 266.401 9.90651 266.387 10.7527L266.361 12.1881L272.445 12.2942ZM281.154 15.4057C281.129 16.8378 279.997 17.5343 277.757 17.4952C276.833 17.479 275.751 17.1932 274.51 16.6376L274.632 16.3467C275.912 16.8965 276.955 17.1784 277.763 17.1925C278.661 17.2082 279.333 17.1287 279.779 16.9542C280.467 16.6862 280.818 16.1682 280.831 15.4001C280.842 14.7882 280.574 14.2789 280.028 13.8721C279.938 13.799 279.761 13.6917 279.496 13.5503C279.238 13.4026 278.887 13.2206 278.441 13.0045L276.108 11.8308C275.585 11.5612 275.206 11.2908 274.97 11.0198C274.67 10.6694 274.524 10.2274 274.534 9.69359C274.559 8.255 275.424 7.5506 277.129 7.58037C278.184 7.59877 279.211 7.88692 280.211 8.44482L280.049 8.72525C278.548 8.17814 277.573 7.90066 277.124 7.89282C275.627 7.86669 274.868 8.46876 274.846 9.69904C274.836 10.2979 275.104 10.7975 275.65 11.1977C275.708 11.2443 275.869 11.3382 276.134 11.4796C276.398 11.6144 276.766 11.7999 277.237 12.0361C277.418 12.1239 277.638 12.2319 277.896 12.3601C278.161 12.4884 278.47 12.6403 278.825 12.8158C279.581 13.1937 280.103 13.5023 280.392 13.7418C280.911 14.1741 281.165 14.7287 281.154 15.4057ZM289.638 12.9167L283.233 12.8049L283.208 14.2402C283.187 15.4575 283.416 16.2949 283.897 16.7526C284.294 17.1242 284.981 17.3185 285.957 17.3355L289.394 17.3955L289.389 17.6982L285.952 17.6382C284.884 17.6196 284.126 17.4012 283.678 16.9832C283.133 16.4788 282.872 15.5627 282.895 14.2347L282.951 11.0419C282.968 10.1045 283.307 9.31605 283.969 8.67647C284.632 8.03689 285.431 7.72528 286.369 7.74164C287.306 7.758 288.095 8.09733 288.734 8.75964C289.374 9.42194 289.685 10.2218 289.669 11.1591L289.638 12.9167ZM289.322 12.5888L289.347 11.1535C289.361 10.3073 289.078 9.58282 288.496 8.98012C287.92 8.37754 287.209 8.06886 286.363 8.05409C285.517 8.03932 284.793 8.32294 284.19 8.90496C283.587 9.48698 283.278 10.2011 283.264 11.0473L283.239 12.4827L289.322 12.5888ZM297.996 17.7019L297.674 17.6963L297.792 10.9005C297.805 10.1649 297.559 9.53551 297.054 9.01229C296.555 8.48919 295.938 8.22121 295.202 8.20837L291.755 8.14821L291.591 17.5901L291.278 17.5847L291.448 7.8303L295.208 7.89592C296.034 7.91035 296.729 8.20898 297.292 8.79181C297.855 9.37464 298.129 10.0794 298.114 10.9061L297.996 17.7019ZM305.633 8.39044L302.596 8.33743L302.431 17.7794L302.109 17.7737L302.274 8.33181L300.838 8.30675L300.844 7.9943L302.279 8.01936L302.36 3.37163L302.683 3.37725L302.601 8.02498L305.638 8.07799L305.633 8.39044Z" fill="white"/>
<defs>
<filter id="filter0_d_2134_6670" x="0.37296" y="108.271" width="27.0324" height="29.0016" filterUnits="userSpaceOnUse" color-interpolation-filters="sRGB">
<feFlood flood-opacity="0" result="BackgroundImageFix"/>
<feColorMatrix in="SourceAlpha" type="matrix" values="0 0 0 0 0 0 0 0 0 0 0 0 0 0 0 0 0 0 127 0" result="hardAlpha"/>
<feOffset dy="1.61418"/>
<feGaussianBlur stdDeviation="1.12993"/>
<feComposite in2="hardAlpha" operator="out"/>
<feColorMatrix type="matrix" values="0 0 0 0 0 0 0 0 0 0 0 0 0 0 0 0 0 0 0.25 0"/>
<feBlend mode="normal" in2="BackgroundImageFix" result="effect1_dropShadow_2134_6670"/>
<feBlend mode="normal" in="SourceGraphic" in2="effect1_dropShadow_2134_6670" result="shape"/>
</filter>
<filter id="filter1_d_2134_6670" x="119.981" y="116.108" width="324.939" height="75.7699" filterUnits="userSpaceOnUse" color-interpolation-filters="sRGB">
<feFlood flood-opacity="0" result="BackgroundImageFix"/>
<feColorMatrix in="SourceAlpha" type="matrix" values="0 0 0 0 0 0 0 0 0 0 0 0 0 0 0 0 0 0 127 0" result="hardAlpha"/>
<feOffset dx="-0.998726" dy="-0.998726"/>
<feGaussianBlur stdDeviation="3.42063"/>
<feComposite in2="hardAlpha" operator="out"/>
<feColorMatrix type="matrix" values="0 0 0 0 0 0 0 0 0 0 0 0 0 0 0 0 0 0 0.25 0"/>
<feBlend mode="normal" in2="BackgroundImageFix" result="effect1_dropShadow_2134_6670"/>
<feBlend mode="normal" in="SourceGraphic" in2="effect1_dropShadow_2134_6670" result="shape"/>
</filter>
<filter id="filter2_d_2134_6670" x="413.23" y="159.742" width="27.509" height="27.1149" filterUnits="userSpaceOnUse" color-interpolation-filters="sRGB">
<feFlood flood-opacity="0" result="BackgroundImageFix"/>
<feColorMatrix in="SourceAlpha" type="matrix" values="0 0 0 0 0 0 0 0 0 0 0 0 0 0 0 0 0 0 127 0" result="hardAlpha"/>
<feOffset dx="-0.403545" dy="-1.21064"/>
<feGaussianBlur stdDeviation="1.12993"/>
<feComposite in2="hardAlpha" operator="out"/>
<feColorMatrix type="matrix" values="0 0 0 0 0 0 0 0 0 0 0 0 0 0 0 0 0 0 0.25 0"/>
<feBlend mode="normal" in2="BackgroundImageFix" result="effect1_dropShadow_2134_6670"/>
<feBlend mode="normal" in="SourceGraphic" in2="effect1_dropShadow_2134_6670" result="shape"/>
</filter>
<filter id="filter3_d_2134_6670" x="71.8321" y="44.7916" width="285.368" height="56.0608" filterUnits="userSpaceOnUse" color-interpolation-filters="sRGB">
<feFlood flood-opacity="0" result="BackgroundImageFix"/>
<feColorMatrix in="SourceAlpha" type="matrix" values="0 0 0 0 0 0 0 0 0 0 0 0 0 0 0 0 0 0 127 0" result="hardAlpha"/>
<feOffset dy="1.49809"/>
<feGaussianBlur stdDeviation="3.59541"/>
<feComposite in2="hardAlpha" operator="out"/>
<feColorMatrix type="matrix" values="0 0 0 0 1 0 0 0 0 1 0 0 0 0 1 0 0 0 0.4 0"/>
<feBlend mode="normal" in2="BackgroundImageFix" result="effect1_dropShadow_2134_6670"/>
<feBlend mode="normal" in="SourceGraphic" in2="effect1_dropShadow_2134_6670" result="shape"/>
</filter>
</defs>
</svg>
