<svg width="360" height="134" viewBox="0 0 360 134" fill="none" xmlns="http://www.w3.org/2000/svg">
<path d="M0.990407 73.1677C0.739248 70.2969 2.86285 67.7661 5.73361 67.515L97.8972 59.4517C100.768 59.2005 103.299 61.3274 103.55 64.1982C104.699 77.3299 105.499 86.471 106.648 99.6027C106.899 102.474 104.776 105.008 101.905 105.259L9.74121 113.322C6.87046 113.573 4.33964 111.45 4.08848 108.579L0.990407 73.1677Z" fill="#C39815"/>
<path d="M34.1918 90.1184C34.4656 93.2484 34.5828 95.4743 34.5433 96.7961C34.5156 98.1041 34.1576 99.331 33.4694 100.477C32.794 101.622 31.821 102.541 30.5502 103.233C29.2795 103.926 27.7654 104.35 26.0081 104.503C24.3405 104.649 22.8161 104.511 21.4349 104.089C20.0654 103.653 18.9289 102.925 18.0254 101.906C17.1219 100.886 16.537 99.7416 16.2709 98.4723C16.0047 97.203 15.7314 94.965 15.4508 91.7581L14.9845 86.4282C14.7107 83.2983 14.5876 81.0794 14.6154 79.7715C14.6548 78.4496 15.0122 77.2162 15.6876 76.0714C16.3758 74.9254 17.3553 74.006 18.626 73.3132C19.8968 72.6204 21.4108 72.1971 23.1682 72.0433C24.8358 71.8974 26.3543 72.0425 27.7238 72.4785C29.105 72.9005 30.2474 73.6213 31.1509 74.641C32.0544 75.6606 32.6392 76.8051 32.9054 78.0744C33.1716 79.3437 33.4449 81.5817 33.7255 84.7886L34.1918 90.1184ZM25.1956 80.5908C25.0688 79.1413 24.9046 78.225 24.7031 77.8419C24.5133 77.4449 24.1682 77.2683 23.6679 77.3121C23.2446 77.3491 22.9321 77.5445 22.7304 77.8982C22.5404 78.238 22.5155 79.2096 22.6558 80.813L23.9284 95.3594C24.0867 97.1681 24.2549 98.2779 24.433 98.6889C24.624 99.0987 24.9888 99.2801 25.5276 99.2329C26.0792 99.1847 26.4106 98.9101 26.5219 98.4092C26.6332 97.9083 26.6086 96.7406 26.4481 94.9063L25.1956 80.5908ZM35.6361 71.6117L43.7944 70.898C46.0007 70.705 47.7091 70.73 48.9195 70.9731C50.1428 71.2151 51.078 71.6373 51.7253 72.2399C52.3855 72.8414 52.8591 73.6013 53.1463 74.5198C53.4452 75.4243 53.6799 76.8514 53.8505 78.8012L54.0878 81.5142C54.2618 83.5025 54.1833 84.97 53.8525 85.9166C53.5217 86.8633 52.8261 87.6286 51.7656 88.2126C50.7179 88.7954 49.3089 89.1643 47.5387 89.3191L45.3645 89.5093L46.462 102.055L38.3615 102.763L35.6361 71.6117ZM44.2029 76.2329L44.8965 84.1603C45.1285 84.1529 45.3279 84.1419 45.4946 84.1273C46.2386 84.0622 46.736 83.8378 46.9868 83.4539C47.2493 83.0561 47.33 82.2799 47.229 81.1255L47.0051 78.5664C46.912 77.5017 46.6846 76.8236 46.3231 76.5321C45.9615 76.2406 45.2548 76.1408 44.2029 76.2329ZM55.4161 69.8812L68.9235 68.6995L69.4689 74.9336L64.0621 75.4067L64.5789 81.3137L69.6393 80.871L70.1578 86.7973L65.0974 87.2401L65.6967 94.09L71.6422 93.5698L72.1876 99.804L58.1415 101.033L55.4161 69.8812ZM89.8964 66.8646L92.6219 98.0162L85.5218 98.6374L80.069 84.8445L81.308 99.006L74.5351 99.5986L71.8096 68.447L78.5826 67.8544L84.3507 81.484L83.1235 67.4571L89.8964 66.8646Z" fill="white"/>
<rect width="18.8009" height="18.2624" transform="matrix(-0.996195 0.0871557 0.0871557 0.996195 18.729 66.2964)" fill="#1E1E1E"/>
<g filter="url(#filter0_d_2250_6765)">
<path d="M18.729 66.2964L10.1462 76.7044L2.12781 86.0809L20.3207 84.4893L18.729 66.2964Z" fill="white"/>
</g>
<g filter="url(#filter1_d_2250_6765)">
<path d="M103.916 83.5696C103.967 80.6883 106.343 78.3933 109.224 78.4436L349.701 82.6411C352.582 82.6914 354.877 85.0712 354.827 87.9525C354.597 101.132 354.437 110.307 354.207 123.487C354.157 126.368 351.78 128.666 348.899 128.616L108.422 124.419C105.541 124.368 103.246 121.992 103.296 119.111L103.916 83.5696Z" fill="#C39815"/>
</g>
<path d="M114.326 84.8176L120.238 84.9208C124.179 84.9895 126.841 85.1882 128.225 85.5166C129.621 85.8453 130.745 86.6454 131.596 87.9171C132.461 89.1758 132.869 91.174 132.821 93.9118C132.777 96.4115 132.437 98.0857 131.801 98.9345C131.164 99.7834 129.932 100.278 128.104 100.418C129.75 100.857 130.851 101.425 131.408 102.123C131.964 102.82 132.304 103.461 132.426 104.046C132.561 104.617 132.607 106.199 132.561 108.791L132.413 117.262L124.657 117.127L124.843 106.453C124.873 104.734 124.753 103.667 124.482 103.252C124.225 102.837 123.521 102.62 122.37 102.6L122.117 117.082L113.765 116.936L114.326 84.8176ZM122.582 90.4587L122.457 97.6006C123.396 97.617 124.053 97.5028 124.428 97.2579C124.816 97.0001 125.022 96.1636 125.047 94.7485L125.078 92.9828C125.096 91.9644 124.922 91.2933 124.557 90.9694C124.206 90.6458 123.547 90.4755 122.582 90.4587ZM136.228 85.1999L150.154 85.443L150.042 91.8707L144.468 91.7734L144.361 97.8639L149.579 97.9549L149.472 104.065L144.255 103.974L144.131 111.037L150.261 111.144L150.149 117.572L135.667 117.319L136.228 85.1999ZM172.387 99.8414L164.035 99.6956L164.133 94.1011C164.161 92.4743 164.086 91.461 163.908 91.0609C163.743 90.6479 163.357 90.4361 162.748 90.4255C162.061 90.4135 161.62 90.6506 161.426 91.1367C161.232 91.6228 161.121 92.6793 161.093 94.306L160.833 109.225C160.805 110.785 160.88 111.805 161.057 112.285C161.234 112.764 161.646 113.009 162.294 113.021C162.916 113.032 163.323 112.801 163.517 112.328C163.724 111.855 163.842 110.739 163.873 108.98L163.943 104.953L172.295 105.099L172.274 106.349C172.216 109.668 171.937 112.018 171.436 113.399C170.949 114.779 169.89 115.978 168.258 116.995C166.639 118.011 164.653 118.499 162.299 118.458C159.852 118.416 157.843 117.937 156.271 117.023C154.699 116.11 153.669 114.868 153.181 113.298C152.692 111.715 152.476 109.35 152.531 106.202L152.694 96.8186C152.735 94.5041 152.844 92.7729 153.023 91.6251C153.202 90.464 153.691 89.3546 154.49 88.2969C155.303 87.2395 156.408 86.4187 157.808 85.8345C159.22 85.2374 160.833 84.9546 162.645 84.9863C165.105 85.0292 167.127 85.5408 168.71 86.5209C170.294 87.5011 171.325 88.7098 171.802 90.147C172.28 91.5709 172.493 93.784 172.441 96.7863L172.387 99.8414ZM175.627 85.8876L181.539 85.9908C185.481 86.0596 188.143 86.2582 189.526 86.5866C190.923 86.9153 192.047 87.7155 192.898 88.9871C193.762 90.2458 194.17 92.2441 194.123 94.9818C194.079 97.4815 193.739 99.1557 193.102 100.005C192.466 100.853 191.233 101.348 189.405 101.488C191.051 101.927 192.153 102.495 192.709 103.193C193.266 103.89 193.605 104.531 193.727 105.116C193.863 105.687 193.908 107.269 193.863 109.861L193.715 118.332L185.958 118.197L186.144 107.523C186.174 105.804 186.054 104.737 185.784 104.322C185.526 103.907 184.822 103.69 183.672 103.67L183.419 118.152L175.067 118.006L175.627 85.8876ZM183.884 91.5287L183.759 98.6706C184.698 98.687 185.355 98.5728 185.729 98.328C186.118 98.0701 186.324 97.2337 186.349 95.8185L186.38 94.0529C186.397 93.0345 186.224 92.3633 185.859 92.0394C185.508 91.7158 184.849 91.5455 183.884 91.5287ZM216.515 86.6013L216.14 108.067C216.098 110.5 215.988 112.212 215.812 113.201C215.637 114.177 215.149 115.18 214.351 116.212C213.553 117.23 212.507 117.998 211.215 118.518C209.936 119.025 208.43 119.264 206.698 119.233C204.78 119.2 203.093 118.853 201.636 118.192C200.179 117.532 199.095 116.686 198.386 115.655C197.676 114.624 197.265 113.545 197.152 112.419C197.04 111.279 197.015 108.897 197.078 105.273L197.41 86.2678L205.762 86.4136L205.342 110.498C205.317 111.9 205.375 112.8 205.513 113.2C205.665 113.586 205.973 113.783 206.435 113.791C206.964 113.8 207.305 113.595 207.458 113.174C207.625 112.74 207.722 111.723 207.75 110.123L208.163 86.4555L216.515 86.6013ZM228.101 86.8035L227.54 118.922L219.188 118.777L219.749 86.6577L228.101 86.8035ZM248.277 87.1557L248.164 93.5834L243.205 93.4969L242.756 119.188L234.404 119.042L234.853 93.3511L229.913 93.2648L230.025 86.8371L248.277 87.1557ZM275.952 87.6388L275.391 119.758L268.09 119.63L268.469 97.9465L265.174 119.579L259.996 119.489L257.291 98.2475L256.921 119.435L249.621 119.308L250.181 87.1889L260.993 87.3777C261.277 89.3142 261.575 91.5949 261.886 94.2198L262.894 102.413L265.06 87.4486L275.952 87.6388ZM279.304 87.6973L293.231 87.9404L293.119 94.3681L287.544 94.2708L287.438 100.361L292.656 100.452L292.549 106.563L287.331 106.472L287.208 113.534L293.338 113.641L293.226 120.069L278.744 119.816L279.304 87.6973ZM314.855 88.3178L314.295 120.437L306.974 120.309L302.884 105.632L302.63 120.233L295.646 120.111L296.207 87.9923L303.19 88.1142L307.62 102.658L307.872 88.1959L314.855 88.3178ZM335.051 88.6703L334.939 95.0981L329.979 95.0115L329.531 120.703L321.179 120.557L321.627 94.8657L316.687 94.7795L316.8 88.3518L335.051 88.6703ZM338.235 114.306L338.121 120.853L332.07 120.747L332.184 114.2L338.235 114.306Z" fill="white"/>
<rect width="18.2624" height="18.2624" transform="matrix(0.999848 0.0174524 0.0174524 -0.999848 336.092 128.76)" fill="#1E1E1E"/>
<g filter="url(#filter2_d_2250_6765)">
<path d="M336.092 128.434L345.716 118.98L354.67 110.493L336.411 110.175L336.092 128.434Z" fill="white"/>
</g>
<g filter="url(#filter3_d_2250_6765)">
<path d="M69.2201 28.9325L65.4278 29.4337L65.092 26.8936C64.9944 26.1549 64.8916 25.7011 64.7837 25.5321C64.6811 25.3562 64.4916 25.2866 64.2154 25.3231C63.9031 25.3643 63.7196 25.5016 63.6649 25.7349C63.6102 25.9682 63.6317 26.4542 63.7293 27.1928L64.6247 33.9666C64.7184 34.6753 64.8215 35.1321 64.9342 35.3372C65.0468 35.5422 65.2503 35.6253 65.5445 35.5864C65.8268 35.5491 65.9957 35.4168 66.0512 35.1895C66.1127 34.9614 66.0906 34.448 65.985 33.6494L65.7433 31.8208L69.5356 31.3195L69.6106 31.887C69.8098 33.3943 69.843 34.4775 69.7102 35.1366C69.5834 35.7949 69.185 36.4097 68.5151 36.981C67.8512 37.5514 66.9848 37.9073 65.9158 38.0486C64.8049 38.1954 63.8625 38.1153 63.0887 37.8082C62.3149 37.5011 61.7641 37.0088 61.4362 36.3311C61.1075 35.6475 60.8487 34.591 60.6598 33.1618L60.0966 28.9012C59.9577 27.8503 59.8898 27.0588 59.8928 26.5268C59.895 25.9889 60.0411 25.4533 60.3311 24.92C60.6271 24.386 61.0721 23.9391 61.6661 23.5796C62.2654 23.2132 62.9763 22.9756 63.7991 22.8669C64.916 22.7192 65.8664 22.8136 66.6502 23.1499C67.4339 23.4862 67.9828 23.9636 68.2967 24.5819C68.6098 25.1943 68.8565 26.1821 69.0367 27.5453L69.2201 28.9325Z" fill="white"/>
<path d="M78.7946 21.5728L82.1824 36.0543L78.2794 36.3751L77.8726 33.7556L76.5052 33.868L76.4955 36.5218L72.5473 36.8464L73.2798 22.0262L78.7946 21.5728ZM77.5503 31.1656C77.2206 29.5213 76.8589 27.4876 76.4652 25.0646C76.3091 27.8975 76.2362 29.9669 76.2463 31.2728L77.5503 31.1656Z" fill="white"/>
<path d="M87.7565 21.1042L88.1446 32.8643L90.4693 32.7876L90.5664 35.7299L84.4185 35.9328L83.9333 21.2304L87.7565 21.1042Z" fill="white"/>
<path d="M96.646 20.9933L96.5002 32.7686L98.828 32.7936L98.7916 35.7397L92.6355 35.6737L92.8178 20.9522L96.646 20.9933Z" fill="white"/>
<path d="M105.509 21.3735L104.665 36.0597L100.846 35.8401L101.69 21.154L105.509 21.3735Z" fill="white"/>
<path d="M117.125 22.5386L115.374 37.1443L112.045 36.7449L110.865 29.8682L110.069 36.508L106.893 36.1271L108.645 21.5214L111.821 21.9023L113.161 28.7343L113.95 22.1577L117.125 22.5386Z" fill="white"/>
<path d="M128.876 30.3295L125.14 29.5068L125.428 28.2024C125.609 27.3802 125.687 26.8577 125.661 26.635C125.636 26.4123 125.49 26.2717 125.224 26.213C124.993 26.1622 124.817 26.2164 124.695 26.3757C124.573 26.5349 124.431 26.9813 124.27 27.7148L122.751 34.6095C122.609 35.2543 122.557 35.6893 122.594 35.9146C122.633 36.134 122.776 36.271 123.025 36.3257C123.297 36.3857 123.505 36.3107 123.651 36.1008C123.802 35.8923 123.952 35.4538 124.099 34.7853L124.474 33.0816L123.72 32.9155L124.2 30.7326L128.575 31.696L126.877 39.4071L124.525 38.8892L124.406 37.7837C124.054 38.1713 123.658 38.4345 123.218 38.5734C122.785 38.7076 122.306 38.7167 121.779 38.6007C121.152 38.4626 120.597 38.1822 120.113 37.7593C119.637 37.3318 119.306 36.862 119.121 36.3499C118.936 35.8378 118.862 35.3284 118.899 34.8218C118.938 34.3092 119.066 33.559 119.283 32.5711L120.223 28.303C120.525 26.9306 120.819 25.9501 121.104 25.3615C121.388 24.7729 121.936 24.2982 122.748 23.9372C123.566 23.5717 124.532 23.5114 125.644 23.7563C126.738 23.9973 127.597 24.4221 128.219 25.0306C128.842 25.6392 129.195 26.2781 129.277 26.9474C129.36 27.6109 129.272 28.5312 129.013 29.7084L128.876 30.3295Z" fill="white"/>
<path d="M143.551 38.6396C142.992 40.0119 142.563 40.9711 142.261 41.5174C141.968 42.0603 141.554 42.4984 141.018 42.8317C140.488 43.1672 139.882 43.3441 139.199 43.3622C138.516 43.3803 137.79 43.2331 137.019 42.9206C136.287 42.6241 135.677 42.2391 135.188 41.7657C134.706 41.2889 134.386 40.7396 134.226 40.1179C134.066 39.4961 134.067 38.8904 134.228 38.3006C134.39 37.7108 134.757 36.713 135.329 35.307L136.281 32.9702C136.84 31.598 137.266 30.6404 137.559 30.0975C137.86 29.5512 138.275 29.1103 138.805 28.7748C139.341 28.4415 139.95 28.2658 140.633 28.2477C141.316 28.2295 142.043 28.3767 142.813 28.6892C143.545 28.9858 144.151 29.3724 144.633 29.8492C145.122 30.3226 145.446 30.8702 145.606 31.492C145.766 32.1137 145.765 32.7195 145.604 33.3092C145.442 33.899 145.075 34.8969 144.503 36.3029L143.551 38.6396ZM141.825 32.7112C142.084 32.0757 142.212 31.656 142.21 31.452C142.216 31.2446 142.109 31.0965 141.889 31.0075C141.703 30.9322 141.53 30.9472 141.369 31.0523C141.216 31.1542 140.997 31.5566 140.711 32.2596L138.114 38.6371C137.791 39.4301 137.623 39.9319 137.609 40.1426C137.601 40.3556 137.715 40.51 137.951 40.6058C138.193 40.7038 138.392 40.6597 138.546 40.4734C138.701 40.287 138.942 39.7918 139.269 38.9875L141.825 32.7112Z" fill="white"/>
<path d="M158.102 36.1902L153.986 45.1409C153.52 46.1556 153.158 46.8544 152.902 47.2373C152.648 47.6147 152.259 47.9457 151.734 48.2303C151.211 48.5094 150.631 48.6378 149.993 48.6156C149.364 48.5904 148.688 48.4101 147.967 48.0747C147.169 47.7034 146.526 47.2433 146.037 46.6944C145.547 46.1455 145.249 45.5883 145.142 45.0228C145.034 44.4574 145.061 43.9275 145.221 43.4331C145.384 42.9332 145.813 41.9277 146.508 40.4166L150.152 32.4918L153.628 34.1086L149.01 44.1512C148.741 44.7358 148.599 45.1249 148.583 45.3185C148.576 45.5092 148.668 45.6493 148.861 45.7389C149.081 45.8413 149.262 45.8184 149.404 45.6701C149.554 45.5188 149.782 45.1095 150.089 44.4422L154.627 34.5734L158.102 36.1902Z" fill="white"/>
<path d="M168.093 38.847L167.471 41.7257L165.247 41.2607L162.763 52.7664L159.018 51.9835L161.501 40.4778L159.286 40.0147L159.907 37.136L168.093 38.847Z" fill="white"/>
<path d="M182.346 39.8L181.846 54.5019L178.495 54.3878L176.734 47.6366L176.506 54.3201L173.31 54.2113L173.81 39.5094L177.007 39.6183L178.924 46.3111L179.15 39.6912L182.346 39.8Z" fill="white"/>
<path d="M185.636 39.8439L192.013 39.7203L192.07 42.6637L189.518 42.7131L189.572 45.502L191.961 45.4557L192.015 48.2537L189.626 48.3L189.688 51.534L192.496 51.4796L192.553 54.423L185.921 54.5515L185.636 39.8439Z" fill="white"/>
<path d="M209.055 38.6365L208.511 53.4393L203.746 53.82C203.135 51.602 202.551 49.0718 201.994 46.2294C201.939 47.4676 201.786 50.0566 201.536 53.9966L196.798 54.3752L193.946 39.8438L197.651 39.5478L198.441 44.6353L199.227 49.5409C199.166 46.975 199.253 43.595 199.49 39.4009L203.457 39.0838C203.545 39.5083 203.81 41.1098 204.253 43.8884L205.106 49.4267C205.04 45.8645 205.121 42.3664 205.35 38.9326L209.055 38.6365Z" fill="white"/>
<path d="M216.168 37.5893L218.846 37.1645C220.632 36.8813 221.851 36.7587 222.502 36.7967C223.159 36.8338 223.731 37.1055 224.218 37.612C224.709 38.1115 225.054 38.9813 225.253 40.2215C225.434 41.3538 225.415 42.137 225.196 42.5711C224.977 43.0052 224.46 43.3268 223.645 43.5358C224.424 43.6028 224.967 43.7716 225.275 44.0422C225.582 44.3129 225.787 44.5753 225.889 44.8294C225.996 45.0766 226.144 45.7873 226.332 46.9616L226.946 50.7989L223.432 51.3563L222.658 46.5214C222.533 45.7426 222.393 45.2703 222.237 45.1045C222.088 44.9378 221.752 44.8958 221.231 44.9784L222.281 51.5388L218.497 52.139L216.168 37.5893ZM220.35 39.4785L220.868 42.7138C221.294 42.6463 221.581 42.5423 221.731 42.4019C221.885 42.2545 221.911 41.8603 221.809 41.2192L221.681 40.4194C221.607 39.9581 221.475 39.6688 221.284 39.5517C221.099 39.4335 220.788 39.4091 220.35 39.4785Z" fill="white"/>
<path d="M237.817 42.6114C238.097 44.0638 238.259 45.1005 238.305 45.7215C238.355 46.3355 238.247 46.9278 237.98 47.4986C237.72 48.0682 237.309 48.5467 236.747 48.9341C236.186 49.3215 235.498 49.5946 234.683 49.7536C233.909 49.9045 233.189 49.9152 232.522 49.7859C231.86 49.6495 231.293 49.3648 230.821 48.932C230.349 48.4992 230.02 47.9921 229.834 47.4108C229.648 46.8295 229.411 45.7948 229.125 44.3067L228.649 41.8335C228.369 40.3812 228.204 39.348 228.154 38.7341C228.109 38.113 228.216 37.5177 228.477 36.9481C228.744 36.3773 229.157 35.8982 229.719 35.5108C230.28 35.1235 230.968 34.8503 231.783 34.6913C232.557 34.5405 233.274 34.5333 233.936 34.6697C234.603 34.799 235.173 35.0801 235.645 35.5129C236.117 35.9458 236.446 36.4529 236.632 37.0342C236.818 37.6155 237.055 38.6502 237.341 40.1382L237.817 42.6114ZM233.146 38.5943C233.016 37.9216 232.895 37.5006 232.782 37.3312C232.674 37.1546 232.504 37.089 232.272 37.1342C232.076 37.1725 231.939 37.2795 231.862 37.4552C231.789 37.6237 231.824 38.08 231.968 38.824L233.267 45.5739C233.429 46.4132 233.561 46.9247 233.664 47.1083C233.774 47.2908 233.953 47.3577 234.203 47.309C234.459 47.2591 234.601 47.1141 234.629 46.874C234.656 46.6338 234.588 46.0882 234.425 45.237L233.146 38.5943Z" fill="white"/>
<path d="M249.528 39.9422C249.863 41.3819 250.064 42.4109 250.133 43.0292C250.206 43.6402 250.121 44.2353 249.876 44.8145C249.637 45.3923 249.244 45.8846 248.698 46.2912C248.152 46.6978 247.475 46.9949 246.667 47.1826C245.9 47.3607 245.18 47.397 244.509 47.2917C243.843 47.179 243.265 46.9151 242.777 46.4999C242.289 46.0846 241.941 45.5902 241.733 45.0166C241.525 44.443 241.25 43.4186 240.908 41.9435L240.339 39.4919C240.004 38.0521 239.801 37.0268 239.727 36.4158C239.658 35.7975 239.743 35.1994 239.982 34.6216C240.227 34.0424 240.622 33.5495 241.169 33.1429C241.715 32.7363 242.392 32.4391 243.2 32.2515C243.967 32.0734 244.684 32.0407 245.351 32.1533C246.022 32.2586 246.602 32.5189 247.09 32.9342C247.578 33.3494 247.926 33.8439 248.134 34.4175C248.342 34.9911 248.617 36.0154 248.959 37.4905L249.528 39.9422ZM244.709 36.0987C244.554 35.4319 244.417 35.016 244.298 34.8509C244.183 34.6785 244.011 34.619 243.781 34.6724C243.586 34.7176 243.454 34.8293 243.383 35.0074C243.317 35.1782 243.37 35.6323 243.541 36.3699L245.094 43.061C245.287 43.893 245.439 44.3988 245.549 44.5784C245.665 44.7567 245.847 44.8171 246.095 44.7595C246.348 44.7006 246.485 44.5509 246.503 44.3102C246.522 44.0696 246.434 43.5273 246.238 42.6836L244.709 36.0987Z" fill="white"/>
<path d="M258.452 28.3594L258.175 35.3474L262.701 42.4445L258.901 43.5319L255.681 37.8945L257.416 43.9569L253.738 45.0094L249.691 30.8667L253.368 29.8143L254.941 35.3089L255.002 29.3468L258.452 28.3594Z" fill="white"/>
<path d="M264.69 26.4908L268.932 40.5763L265.269 41.6794L261.027 27.5939L264.69 26.4908Z" fill="white"/>
<path d="M267.017 25.7159L273.115 23.814L273.997 26.6268L271.557 27.3881L272.393 30.0532L274.677 29.3407L275.516 32.0145L273.232 32.727L274.202 35.8176L276.886 34.9804L277.769 37.7932L271.428 39.7709L267.017 25.7159Z" fill="white"/>
</g>
<path d="M108.635 45.3295L61.6456 44.7095C55.6837 44.6308 50.2781 41.19 47.683 35.8219L47.1262 34.6701C45.2191 30.7251 45.3764 26.0941 47.5467 22.2875C49.333 19.1545 52.3144 16.8807 55.8083 15.9867L61.0553 14.6442C63.6107 13.9904 66.2504 13.728 68.8845 13.8661L105.522 15.7862C108.893 15.9628 112.237 16.4771 115.506 17.3211L132.409 21.6864L163.38 27.468L187.786 28.747C191.457 28.9394 195.138 28.7304 198.763 28.1236L232.668 22.4496L264.476 14.1504C269.011 12.967 273.791 13.1094 278.248 14.5608L281.554 15.6372C284.842 16.7081 287.654 18.893 289.504 21.8152L290.119 22.7875C292.959 27.2732 292.818 33.0276 289.762 37.3688C288.058 39.789 285.587 41.5626 282.748 42.4017L245.56 53.3956C243.009 54.1498 240.402 54.7012 237.764 55.0447L196.196 60.4573C193.159 60.8528 190.092 60.9711 187.033 60.8108L157.477 59.2618C150.804 58.9121 144.267 57.2415 138.244 54.3469L129.844 50.3093C123.221 47.1259 115.983 45.4265 108.635 45.3295Z" stroke="white" stroke-width="1.21064"/>
<defs>
<filter id="filter0_d_2250_6765" x="0.30145" y="65.7746" width="21.8453" height="23.4371" filterUnits="userSpaceOnUse" color-interpolation-filters="sRGB">
<feFlood flood-opacity="0" result="BackgroundImageFix"/>
<feColorMatrix in="SourceAlpha" type="matrix" values="0 0 0 0 0 0 0 0 0 0 0 0 0 0 0 0 0 0 127 0" result="hardAlpha"/>
<feOffset dy="1.30445"/>
<feGaussianBlur stdDeviation="0.913118"/>
<feComposite in2="hardAlpha" operator="out"/>
<feColorMatrix type="matrix" values="0 0 0 0 0 0 0 0 0 0 0 0 0 0 0 0 0 0 0.25 0"/>
<feBlend mode="normal" in2="BackgroundImageFix" result="effect1_dropShadow_2250_6765"/>
<feBlend mode="normal" in="SourceGraphic" in2="effect1_dropShadow_2250_6765" result="shape"/>
</filter>
<filter id="filter1_d_2250_6765" x="96.9595" y="72.1072" width="262.59" height="61.2315" filterUnits="userSpaceOnUse" color-interpolation-filters="sRGB">
<feFlood flood-opacity="0" result="BackgroundImageFix"/>
<feColorMatrix in="SourceAlpha" type="matrix" values="0 0 0 0 0 0 0 0 0 0 0 0 0 0 0 0 0 0 127 0" result="hardAlpha"/>
<feOffset dx="-0.807092" dy="-0.807092"/>
<feGaussianBlur stdDeviation="2.76429"/>
<feComposite in2="hardAlpha" operator="out"/>
<feColorMatrix type="matrix" values="0 0 0 0 0 0 0 0 0 0 0 0 0 0 0 0 0 0 0.25 0"/>
<feBlend mode="normal" in2="BackgroundImageFix" result="effect1_dropShadow_2250_6765"/>
<feBlend mode="normal" in="SourceGraphic" in2="effect1_dropShadow_2250_6765" result="shape"/>
</filter>
<filter id="filter2_d_2250_6765" x="333.939" y="107.37" width="22.2306" height="21.9122" filterUnits="userSpaceOnUse" color-interpolation-filters="sRGB">
<feFlood flood-opacity="0" result="BackgroundImageFix"/>
<feColorMatrix in="SourceAlpha" type="matrix" values="0 0 0 0 0 0 0 0 0 0 0 0 0 0 0 0 0 0 127 0" result="hardAlpha"/>
<feOffset dx="-0.326114" dy="-0.978341"/>
<feGaussianBlur stdDeviation="0.913118"/>
<feComposite in2="hardAlpha" operator="out"/>
<feColorMatrix type="matrix" values="0 0 0 0 0 0 0 0 0 0 0 0 0 0 0 0 0 0 0.25 0"/>
<feBlend mode="normal" in2="BackgroundImageFix" result="effect1_dropShadow_2250_6765"/>
<feBlend mode="normal" in="SourceGraphic" in2="effect1_dropShadow_2250_6765" result="shape"/>
</filter>
<filter id="filter3_d_2250_6765" x="53.5652" y="16.3517" width="230.014" height="45.2212" filterUnits="userSpaceOnUse" color-interpolation-filters="sRGB">
<feFlood flood-opacity="0" result="BackgroundImageFix"/>
<feColorMatrix in="SourceAlpha" type="matrix" values="0 0 0 0 0 0 0 0 0 0 0 0 0 0 0 0 0 0 127 0" result="hardAlpha"/>
<feOffset dy="1.21064"/>
<feGaussianBlur stdDeviation="2.90553"/>
<feComposite in2="hardAlpha" operator="out"/>
<feColorMatrix type="matrix" values="0 0 0 0 1 0 0 0 0 1 0 0 0 0 1 0 0 0 0.4 0"/>
<feBlend mode="normal" in2="BackgroundImageFix" result="effect1_dropShadow_2250_6765"/>
<feBlend mode="normal" in="SourceGraphic" in2="effect1_dropShadow_2250_6765" result="shape"/>
</filter>
</defs>
</svg>
